<svg xmlns="http://www.w3.org/2000/svg" width="40" height="46" viewBox="0 0 40 46"><defs><style>.a{fill:#fff;}</style></defs><path class="a" d="M40,8.625v23c0,4.655-5.5,8.625-11.609,8.625l5.623,4.467A.72.72,0,0,1,33.571,46H6.429a.72.72,0,0,1-.443-1.283l5.623-4.467C5.52,40.25,0,36.293,0,31.625v-23C0,3.862,5.714,0,11.429,0H28.571C34.375,0,40,3.862,40,8.625ZM35.714,20.844V10.781a2.15,2.15,0,0,0-2.143-2.156H6.429a2.15,2.15,0,0,0-2.143,2.156V20.844A2.15,2.15,0,0,0,6.429,23H33.571A2.15,2.15,0,0,0,35.714,20.844ZM20,26.594a5.031,5.031,0,1,0,5,5.031A5.016,5.016,0,0,0,20,26.594Z"/></svg>