<svg xmlns="http://www.w3.org/2000/svg" width="33.339" height="46" viewBox="0 0 33.339 46"><defs><style>.a{fill:#fff;}</style></defs><path class="a" d="M31.5,36.041l-.108-.207.055-.078.055-.078a12.816,12.816,0,0,0,2.745-1.539,4.54,4.54,0,0,0,1.651-2.7l.206-.948V6a3.753,3.753,0,0,0-.525-1.828,7.014,7.014,0,0,0-1.31-1.705,7.522,7.522,0,0,0-1.75-1.258A4.1,4.1,0,0,0,30.661.72H13.134a4.159,4.159,0,0,0-1.809.467A7.5,7.5,0,0,0,9.546,2.394,6.661,6.661,0,0,0,8.212,4.037a3.659,3.659,0,0,0-.525,1.814V30.706A3.207,3.207,0,0,0,8,32.014a6.436,6.436,0,0,0,.785,1.277,8.09,8.09,0,0,0,1.024,1.1,6.95,6.95,0,0,0,1.073.81c.169.071.479.18.918.32s.631.241.6.308L5.226,46.72H9.411l5.237-7.59H29.094l5.231,7.59h4.24ZM17.735,2.811A.835.835,0,0,1,18,2.259a.715.715,0,0,1,.523-.283h6.7a1.088,1.088,0,0,1,.42.2c.206.14.311.279.311.418V5.163a.594.594,0,0,1-.26.47.8.8,0,0,1-.47.217H18.47l-.213-.166a1.911,1.911,0,0,1-.339-.289.524.524,0,0,1-.183-.385v-2.2Zm-6.753,7.17a2.415,2.415,0,0,1,.237-1.023,4.02,4.02,0,0,1,.6-.916,3.025,3.025,0,0,1,.862-.676A2.169,2.169,0,0,1,13.708,7.1H29.986a2.415,2.415,0,0,1,.938.205,3.22,3.22,0,0,1,.866.578,3.285,3.285,0,0,1,.629.789,1.768,1.768,0,0,1,.232.886V15.11a1.77,1.77,0,0,1-.259.912,2.826,2.826,0,0,1-.68.794,3.914,3.914,0,0,1-.891.541,2.159,2.159,0,0,1-.939.211H13.812l-.265-.047a1.583,1.583,0,0,1-.316-.108,2.654,2.654,0,0,1-1.567-.942,2.573,2.573,0,0,1-.682-1.724V9.981ZM15.828,31.6a2.7,2.7,0,0,1-2.015.836,2.541,2.541,0,0,1-1.967-.836,2.939,2.939,0,0,1-.757-2.045,2.642,2.642,0,0,1,.788-1.906,2.584,2.584,0,0,1,1.937-.817,2.878,2.878,0,0,1,2.015.757,2.637,2.637,0,0,1,.811,2.02A2.758,2.758,0,0,1,15.828,31.6Zm11.985,0A2.837,2.837,0,0,1,27,29.553a2.5,2.5,0,0,1,.864-1.965,3,3,0,0,1,2.019-.757,2.566,2.566,0,0,1,1.96.817,2.705,2.705,0,0,1,.761,1.906,2.883,2.883,0,0,1-.787,2.045,2.617,2.617,0,0,1-1.992.836,2.686,2.686,0,0,1-2.011-.836Z" transform="translate(-5.226 -0.72)"/></svg>