<svg xmlns="http://www.w3.org/2000/svg" width="295" height="295" viewBox="0 0 295 295"><defs><style>.a,.b{fill:#391c19;}.a{opacity:0.34;}.c{fill:#fff;}</style></defs><g transform="translate(-213 -3493)"><circle class="a" cx="87.5" cy="87.5" r="87.5" transform="translate(273 3553)"/><circle class="b" cx="82.5" cy="82.5" r="82.5" transform="translate(278 3558)"/><path class="c" d="M18.535,1.928c-8.284,0-15,7.835-15,17.5,0,8.275,4.924,15.208,11.54,17.031L12.591,76.938a4.657,4.657,0,0,0,4.694,4.99h2.5a4.657,4.657,0,0,0,4.694-4.99L22,36.459c6.616-1.823,11.54-8.756,11.54-17.031C33.535,9.763,26.819,1.928,18.535,1.928Zm50.417,0-4.167,25H61.66l-2.083-25H57.493l-2.083,25H52.285l-4.167-25H46.035v32.5a2.5,2.5,0,0,0,2.5,2.5h6.511l-2.455,40.01a4.657,4.657,0,0,0,4.694,4.99h2.5a4.657,4.657,0,0,0,4.694-4.99l-2.455-40.01h6.511a2.5,2.5,0,0,0,2.5-2.5V1.928Z" transform="translate(323.465 3599.072)"/></g></svg>