<svg xmlns="http://www.w3.org/2000/svg" width="295" height="295" viewBox="0 0 295 295"><defs><style>.a,.b{fill:#391c19;}.a{opacity:0.34;}.c{fill:#fff;}</style></defs><g transform="translate(-506 -3493)"><circle class="a" cx="87.5" cy="87.5" r="87.5" transform="translate(566 3553)"/><circle class="b" cx="82.5" cy="82.5" r="82.5" transform="translate(571 3558)"/><path class="c" d="M11.418,22.251c7.764-6.666,13.9-11.937,30.541-2.533,8,4.515,14.444,6.222,19.808,6.213,9.4,0,15.493-5.227,20.759-9.746a4.607,4.607,0,0,0,.542-6.4A4.386,4.386,0,0,0,76.8,9.233c-7.76,6.675-13.9,11.946-30.541,2.533C24.271-.646,13.969,8.2,5.694,15.309a4.61,4.61,0,0,0-.538,6.4,4.383,4.383,0,0,0,6.262.547ZM76.8,31.931c-7.76,6.666-13.9,11.946-30.541,2.533C24.271,22.042,13.969,30.891,5.694,38a4.607,4.607,0,0,0-.538,6.4,4.38,4.38,0,0,0,6.262.556c7.764-6.671,13.9-11.942,30.541-2.542,8,4.524,14.444,6.222,19.808,6.222,9.4,0,15.493-5.227,20.759-9.755a4.6,4.6,0,0,0,.542-6.391,4.381,4.381,0,0,0-6.267-.551Zm0,22.693c-7.76,6.675-13.9,11.946-30.541,2.542C24.271,44.744,13.969,53.588,5.694,60.7a4.607,4.607,0,0,0-.538,6.4,4.379,4.379,0,0,0,6.262.547c7.764-6.667,13.9-11.933,30.541-2.533,8,4.515,14.444,6.222,19.808,6.222,9.4,0,15.493-5.235,20.759-9.755a4.607,4.607,0,0,0,.542-6.4,4.389,4.389,0,0,0-6.267-.556Z" transform="translate(609.888 3602.448)"/></g></svg>