<svg xmlns="http://www.w3.org/2000/svg" width="295" height="295" viewBox="0 0 295 295"><defs><style>.a,.b{fill:#391c19;}.a{opacity:0.34;}.c{fill:#fff;}</style></defs><g transform="translate(-799 -3493)"><circle class="a" cx="87.5" cy="87.5" r="87.5" transform="translate(859 3553)"/><circle class="b" cx="82.5" cy="82.5" r="82.5" transform="translate(864 3558)"/><path class="c" d="M79.364,17.61a58.12,58.12,0,0,0-78.727,0,1.987,1.987,0,0,0-.044,2.872l4.28,4.246a2.03,2.03,0,0,0,2.8.048,47.958,47.958,0,0,1,64.656,0,2.031,2.031,0,0,0,2.8-.048l4.28-4.246a1.988,1.988,0,0,0-.045-2.872ZM40,42.25a8,8,0,1,0,8,8A8,8,0,0,0,40,42.25ZM65.334,31.8a38.375,38.375,0,0,0-50.667,0,1.976,1.976,0,0,0-.071,2.894l4.3,4.249a2.04,2.04,0,0,0,2.756.1,28.153,28.153,0,0,1,36.686,0,2.039,2.039,0,0,0,2.756-.1L65.4,34.695A1.976,1.976,0,0,0,65.334,31.8Z" transform="translate(907 3610.75)"/></g></svg>